<?xml version="1.0" encoding="UTF-8" standalone="no"?><!DOCTYPE svg PUBLIC "-//W3C//DTD SVG 1.1//EN" "http://www.w3.org/Graphics/SVG/1.1/DTD/svg11.dtd"><svg width="100%" height="100%" viewBox="0 0 512 512" version="1.1" xmlns="http://www.w3.org/2000/svg" xmlns:xlink="http://www.w3.org/1999/xlink" xml:space="preserve" xmlns:serif="http://www.serif.com/" style="fill-rule:evenodd;clip-rule:evenodd;stroke-linecap:round;stroke-linejoin:round;"><g><rect x="0" y="0" width="523.765" height="536.32" style="fill:#222536;stroke:#222536;stroke-width:0.73px;"/><path d="M255.269,99.945l-37.354,27.197l75.273,0.295l-37.919,-27.492Zm-116.822,85.055l-37.863,27.57l14.322,43.93l23.541,-71.5Zm234.328,0.136l22.98,71.682l14.43,-44.561l-37.41,-27.121Zm-227.399,164.822l14.518,44.53l46.207,-0.046l-60.725,-44.484Zm220.097,0.379l-61.072,44.007l46.838,-0.047l14.234,-43.96Z" style="fill:#f9c57b;fill-rule:nonzero;stroke:#f0ae6f;stroke-width:0.6px;"/><path d="M160.28,130.658l-14.647,44.487l60.855,-44.307l-46.208,-0.18Zm144.506,0.565l60.943,44.186l-14.106,-44.003l-46.837,-0.183Zm-189.896,137.292l-14.45,43.888l37.783,27.68l-23.333,-71.568Zm280.845,0.501l-23.19,71.614l37.488,-27.011l-14.298,-44.603Zm-102.942,129.08l-75.276,0.076l37.276,27.307l38,-27.383Z" style="fill:#8e6748;fill-rule:nonzero;stroke:#8e6748;stroke-width:0.6px;"/><path d="M187.258,286.602l9.197,6.432c-3.793,6.012 -6.018,9.017 -6.673,9.017c-0.172,0 -1.661,-0.934 -4.47,-2.804c-2.809,-1.869 -4.314,-2.932 -4.513,-3.188c-1.54,1.759 -3.094,3.683 -4.663,5.773c-1.226,-0.368 -3.008,-1.376 -5.346,-3.025c-1.968,-1.429 -3.251,-2.492 -3.851,-3.188c1.569,-2.016 3.765,-5.021 6.588,-9.017c0.57,0.843 1.868,2.034 3.893,3.574c2.138,1.613 3.55,2.419 4.234,2.419c0.343,0 1.241,-0.898 2.695,-2.694c1.569,-1.943 2.538,-3.042 2.909,-3.299Zm28.746,54.154l-0,15.338l-10.352,0c-2.681,0 -4.634,-1.686 -5.861,-5.057c-0.114,-0.22 -0.869,-3.409 -2.267,-9.566c-0.684,0.366 -1.796,2.62 -3.336,6.762c-1.169,3.115 -2.495,4.673 -3.978,4.673c-0.228,-0 -0.457,-0.019 -0.685,-0.055c-9.411,-2.786 -15.656,-4.179 -18.735,-4.179c0.056,-1.832 0.812,-5.332 2.267,-10.5c1.71,-5.938 3.293,-9.768 4.747,-11.491c1.284,-1.503 3.936,-3.555 7.957,-6.158c3.936,-2.565 6.359,-4.453 7.272,-5.662c-0,-0.55 -0.172,-1.329 -0.514,-2.336c-0.342,-1.008 -0.513,-1.806 -0.513,-2.392c1.226,-2.309 3.465,-7 6.716,-14.074c0.827,1.832 2.039,9.071 3.636,21.716c1.568,12.461 2.638,19.187 3.208,20.177c1.084,1.869 3.365,2.804 6.844,2.804l3.594,-0Zm-19.634,-5.938c0.057,-0.587 -0.642,-4.82 -2.097,-12.7c-0.199,-0 -0.698,0.696 -1.497,2.09c-1.54,2.748 -3.436,4.819 -5.689,6.211c-1.112,0.697 -1.868,1.558 -2.267,2.584c0.998,0.404 3.094,0.825 6.288,1.265c2.88,0.367 4.634,0.55 5.262,0.55Z" style="fill:#fff;fill-rule:nonzero;"/><path d="M243.252,301.611c-0,0.66 -1.269,2.245 -3.807,4.756c-2.538,2.511 -4.121,3.766 -4.749,3.766c-0.541,0 -2.052,-1.283 -4.533,-3.848c-2.481,-2.566 -3.722,-4.087 -3.722,-4.564c0,-0.66 1.241,-2.492 3.722,-5.498c2.481,-3.005 3.992,-4.508 4.533,-4.508c0.286,-0 1.783,1.548 4.492,4.646c2.709,3.097 4.064,4.847 4.064,5.25Zm13.518,39.145l-0,15.338l-43.547,0l0,-15.338l10.609,-0c0.085,-1.98 0.157,-3.153 0.213,-3.519c0.2,-1.173 0.585,-2.236 1.156,-3.189c2.537,-4.142 5.375,-7.935 8.512,-11.381c5.076,-5.57 9.482,-8.355 13.218,-8.355c2.082,-0 3.707,1.722 4.877,5.167c0.912,2.676 1.368,5.535 1.368,8.577c-0,2.309 -0.271,4.031 -0.813,5.167c-0.656,1.43 -1.825,3.941 -3.507,7.533l7.914,-0Zm-12.363,-2.695c0.057,-1.649 -0.328,-3.371 -1.155,-5.167c-0.998,-2.236 -2.367,-3.354 -4.106,-3.354c-0.998,-0 -2.538,0.623 -4.62,1.869c-2.282,1.356 -3.394,2.566 -3.336,3.629c-0.086,1.392 0.898,2.73 2.951,4.013c1.796,1.063 3.322,1.594 4.577,1.594c0.855,0 1.91,-0.201 3.166,-0.604c1.654,-0.513 2.495,-1.173 2.523,-1.98Z" style="fill:#fff;fill-rule:nonzero;"/><path d="M326.879,288.526l9.54,6.652c-3.793,6.231 -6.075,9.347 -6.845,9.347c-0.228,-0 -1.796,-0.99 -4.705,-2.969l-4.749,-3.353c-1.568,1.796 -3.179,3.83 -4.833,6.102c-1.084,-0.293 -2.752,-1.21 -5.005,-2.749c-2.253,-1.539 -3.764,-2.804 -4.534,-3.794c1.682,-2.089 3.964,-5.131 6.844,-9.125c0.685,0.842 2.068,2.034 4.149,3.573c2.225,1.686 3.665,2.529 4.321,2.529c0.37,0 1.297,-0.934 2.78,-2.803c1.626,-2.017 2.638,-3.153 3.037,-3.41Zm17.838,41.234c0.485,3.115 0.457,7.349 -0.085,12.7c-0.314,3.189 -0.984,7.734 -2.011,13.634l-36.103,0l-1.198,-10.72c-1.54,-0.22 -5.404,-0.33 -11.593,-0.33c-1.996,0 -5.403,1.842 -10.222,5.525c-4.82,3.684 -8.299,5.525 -10.438,5.525l-18.736,0l0,-15.338l20.746,-0c3.337,-0 7.429,-1.65 12.277,-4.949c-8.698,-4.215 -13.774,-6.267 -15.228,-6.157c-3.023,0.183 -5.305,1.118 -6.844,2.804c-0.77,0.806 -1.384,1.209 -1.84,1.209c-0.285,0 -0.427,-0.22 -0.427,-0.66c0.056,-0.183 0.284,-1.08 0.684,-2.693c1.369,-3.665 3.009,-6.817 4.919,-9.457c2.424,-3.372 4.848,-5.204 7.272,-5.498c0.571,-0.073 1.184,-0.109 1.84,-0.109c2.652,0 5.39,0.825 8.213,2.474c0.941,0.513 3.536,2.126 7.784,4.838c3.052,1.906 6.959,3.519 11.721,4.838c4.592,1.283 8.656,1.924 12.191,1.924c-0.513,1.063 -1.126,3.116 -1.838,6.157c-0.742,3.409 -1.17,5.168 -1.284,5.279l23.313,-0c-1.996,-7.038 -4.335,-12.426 -7.016,-16.165c0.97,-1.905 3.038,-6.45 6.203,-13.634c1.055,1.76 2.168,3.849 3.337,6.268c2.424,5.021 3.878,9.199 4.363,12.535Z" style="fill:#fff;fill-rule:nonzero;"/><path d="M347.517,220.429c0.057,9.456 -1.996,17.465 -6.16,24.026l-4.705,-45.632c0,-0.953 1.198,-4.105 3.593,-9.457c2.224,-4.948 3.593,-7.88 4.107,-8.796c0.77,5.792 1.297,10.116 1.582,12.975c0.998,9.823 1.526,18.784 1.583,26.884Z" style="fill:#f9c57b;fill-rule:nonzero;"/><path d="M212.344,227.851l0,15.339l-14.372,0c-0.342,-0.44 -1.54,-18.784 -3.594,-55.033c0.343,-0.697 2.71,-4.801 7.102,-12.314c1.169,16.969 2.452,34.085 3.849,51.348c0.342,0.44 1.954,0.66 4.834,0.66l2.181,0Z" style="fill:#f9c57b;fill-rule:nonzero;"/><path d="M272.958,227.851l-0,15.339l-8.769,0c-0.399,-0.989 -0.955,-2.419 -1.668,-4.289c-0.343,0.843 -1.041,2.273 -2.096,4.289l-14.373,0c-0.998,-1.796 -1.782,-2.694 -2.353,-2.694c-0.199,-0 -0.598,0.449 -1.197,1.347c-0.599,0.898 -1.113,1.347 -1.54,1.347l-15.485,0.11c-1.056,-1.796 -1.783,-2.694 -2.182,-2.694c0.656,0 0.371,0.431 -0.856,1.293c-1.225,0.861 -2.138,1.291 -2.737,1.291l-8.94,0l-0,-15.339l11.549,0c1.341,0 2.011,-1.832 2.011,-5.498c1.34,-3.152 2.481,-5.681 3.422,-7.586c1.796,-3.666 3.108,-5.718 3.935,-6.158c0,3.372 -1.169,9.786 -3.508,19.242l13.432,0c0.913,0 1.498,-0.824 1.754,-2.473l-0,-3.355c3.536,-7.733 6.103,-12.168 7.7,-13.304c0.142,0 0.057,3.006 -0.257,9.017c-0.143,2.565 -0.584,5.937 -1.326,10.115l8.684,0c0.228,0 0.342,-0.293 0.342,-0.879c-0,-0.66 -0.122,-1.641 -0.364,-2.942c-0.242,-1.301 -0.364,-2.263 -0.364,-2.886c3.451,-7.587 5.818,-11.381 7.102,-11.381c0.142,3.116 0.385,7.129 0.727,12.041c0.085,1.246 0.47,2.529 1.155,3.848c0.798,1.466 1.639,2.199 2.523,2.199l3.679,0Z" style="fill:#f9c57b;fill-rule:nonzero;"/><path d="M299.051,186.343c-0.057,0.586 -1.197,2.419 -3.421,5.498c-2.396,3.335 -3.622,5.058 -3.679,5.167c-6.36,-4.251 -9.91,-6.377 -10.652,-6.377c2.367,-3.335 5.077,-6.945 8.128,-10.831c5.361,4.362 8.569,6.543 9.624,6.543Zm7.358,41.508l0,15.339l-6.545,0c-4.163,0 -6.858,-3.189 -8.085,-9.566c-1.112,2.566 -2.509,5.754 -4.192,9.566l-16.81,0l-0,-15.339l19.719,0c0.513,-1.393 0.827,-5.48 0.942,-12.26c0.456,-0.88 1.711,-2.932 3.764,-6.157c2.11,-3.372 3.365,-5.26 3.764,-5.663c0.228,4.765 -0.057,10.519 -0.855,17.263c-0.229,1.869 0.242,3.472 1.411,4.811c1.169,1.337 2.51,2.006 4.021,2.006l2.866,0Z" style="fill:#f9c57b;fill-rule:nonzero;"/><path d="M330.663,191.181l-8.47,13.524c0,1.503 0.428,7.88 1.284,19.132c-0,2.31 -0.4,5.572 -1.198,9.787c-0.371,1.649 -0.87,4.086 -1.497,7.312c-0.171,0.916 -0.685,1.558 -1.54,1.924c-0.656,0.257 -1.269,0.385 -1.84,0.385c-0.228,0 -0.441,-0.018 -0.641,-0.055l-12.362,0l-0,-15.339l11.464,0c0.171,-0.073 0.257,-0.66 0.257,-1.76c-0,-2.638 -0.585,-8.227 -1.754,-16.767l-1.926,-14.075c-1.055,-1.062 -2.224,-2.345 -3.507,-3.848l3.764,-9.127c2.196,-4.875 3.636,-7.312 4.321,-7.312c0.028,0.33 0.142,1.302 0.342,2.914c0.285,2.199 0.841,3.665 1.668,4.398c6.587,5.938 10.466,8.907 11.635,8.907Z" style="fill:#f9c57b;fill-rule:nonzero;"/><path d="M185.995,230.38l-6.289,12.15c-9.781,0.147 -18.579,4.637 -26.393,13.47c0.428,-3.702 1.569,-6.689 3.422,-8.961c0.685,-0.843 2.809,-2.731 6.374,-5.663l-6.288,-1.815c-2.509,-1.026 -3.935,-2.712 -4.278,-5.058c0,-5.46 1.626,-10.83 4.876,-16.107c3.936,-6.305 8.899,-9.457 14.887,-9.457c3.764,-0 6.017,2.712 6.758,8.137l-4.79,9.236c-3.109,-3.519 -5.69,-5.205 -7.743,-5.058c-1.597,0.11 -2.937,0.733 -4.021,1.869c-0.884,0.99 -1.497,1.594 -1.839,1.814c2.994,3.922 11.435,5.737 25.324,5.443Z" style="fill:#f9c57b;fill-rule:nonzero;"/><path id="f5_76" d="M334.105,272.588c-0.092,0.275 -0.275,0.87 -0.549,1.785c-0.092,0.549 -0.183,0.823 -0.275,0.823c-0.183,-0.091 -0.366,-0.228 -0.549,-0.412c-0.732,-0.549 -1.418,-1.006 -2.059,-1.372c-1.373,2.105 -3.432,3.981 -6.177,5.628c-1.556,0.915 -3.523,1.83 -5.903,2.745c-1.281,0.549 -2.013,0.641 -2.196,0.275c-0.183,-0.183 0.503,-0.732 2.059,-1.647c2.746,-1.556 4.622,-2.654 5.628,-3.295c2.196,-1.464 3.798,-2.928 4.805,-4.393c-0.366,-0.183 -0.916,-0.366 -1.648,-0.549c-1.738,-0.64 -2.608,-1.555 -2.608,-2.745c0,-1.556 0.687,-3.066 2.059,-4.53c1.373,-1.464 2.608,-2.196 3.707,-2.196c1.555,-0 2.333,1.281 2.333,3.843c0,1.465 -0.32,2.883 -0.961,4.256c1.556,0.823 2.334,1.418 2.334,1.784Zm-3.569,-4.942c-0,-1.189 -0.549,-1.784 -1.647,-1.784c-1.556,-0 -2.334,0.641 -2.334,1.922c0,0.457 1.19,1.235 3.569,2.333c0.275,-0.915 0.412,-1.738 0.412,-2.471Z" style="fill:#f9c57b;fill-rule:nonzero;"/><path id="f5_761" serif:id="f5_76" d="M191.327,274.882c-0.091,0.274 -0.274,0.869 -0.549,1.784c-0.091,0.549 -0.183,0.824 -0.274,0.824c-0.183,-0.092 -0.366,-0.229 -0.549,-0.412c-0.733,-0.549 -1.419,-1.007 -2.059,-1.373c-1.373,2.105 -3.432,3.981 -6.178,5.628c-1.555,0.916 -3.523,1.831 -5.902,2.746c-1.281,0.549 -2.013,0.64 -2.196,0.274c-0.184,-0.183 0.503,-0.732 2.059,-1.647c2.745,-1.556 4.621,-2.654 5.628,-3.294c2.196,-1.465 3.797,-2.929 4.804,-4.393c-0.366,-0.183 -0.915,-0.366 -1.647,-0.549c-1.739,-0.641 -2.608,-1.556 -2.608,-2.745c-0,-1.556 0.686,-3.066 2.059,-4.53c1.372,-1.465 2.608,-2.197 3.706,-2.197c1.556,0 2.334,1.282 2.334,3.844c-0,1.464 -0.321,2.883 -0.961,4.255c1.555,0.824 2.333,1.419 2.333,1.785Zm-3.569,-4.942c0,-1.19 -0.549,-1.784 -1.647,-1.784c-1.556,-0 -2.334,0.64 -2.334,1.921c0,0.458 1.19,1.236 3.569,2.334c0.275,-0.915 0.412,-1.739 0.412,-2.471Z" style="fill:#f9c57b;fill-rule:nonzero;"/><path id="f5_2" d="M316.524,265.074c0.352,0.315 0.352,1.104 -0,2.365c-0.235,1.262 -0.587,1.893 -1.056,1.893c-0,-0 -0.353,-0.421 -1.057,-1.262c-0.704,-0.841 -1.467,-1.261 -2.288,-1.261c-1.643,-0 -2.817,2.76 -3.521,8.279c-0.705,5.52 -1.35,8.228 -1.937,8.123c-0.704,-0 -1.467,-1.21 -2.289,-3.628c-0.938,-3.049 -2.523,-5.415 -4.753,-7.097c-0.117,0.21 -0.293,0.421 -0.528,0.631c-0.352,0.105 -1.32,-0.237 -2.905,-1.025c-1.584,-0.789 -2.435,-1.498 -2.553,-2.129c-0.352,-2.839 0.235,-4.258 1.761,-4.258c2.817,-0.106 5.81,2.576 8.978,8.043c0.47,1.156 1.115,2.471 1.937,3.943c0.352,-2.629 0.822,-5.257 1.408,-7.886c0.939,-4.836 2.406,-7.202 4.402,-7.097c1.525,0 2.992,0.789 4.401,2.366Z" style="fill:#f9c57b;fill-rule:nonzero;"/><path id="f5_21" serif:id="f5_2" d="M237.394,253.782c0.352,0.315 0.352,1.104 0,2.365c-0.235,1.262 -0.587,1.893 -1.056,1.893c-0,-0 -0.352,-0.421 -1.056,-1.262c-0.705,-0.841 -1.468,-1.261 -2.289,-1.261c-1.643,-0 -2.817,2.76 -3.521,8.279c-0.704,5.52 -1.35,8.228 -1.937,8.123c-0.704,-0 -1.467,-1.21 -2.288,-3.628c-0.939,-3.049 -2.524,-5.415 -4.754,-7.097c-0.117,0.21 -0.293,0.421 -0.528,0.631c-0.352,0.105 -1.32,-0.237 -2.905,-1.025c-1.584,-0.789 -2.435,-1.498 -2.552,-2.129c-0.352,-2.839 0.234,-4.258 1.76,-4.258c2.817,-0.106 5.81,2.576 8.979,8.043c0.469,1.156 1.115,2.471 1.936,3.943c0.352,-2.629 0.822,-5.257 1.409,-7.886c0.939,-4.836 2.406,-7.202 4.401,-7.097c1.526,0 2.993,0.789 4.401,2.366Z" style="fill:#f9c57b;fill-rule:nonzero;"/><path id="f5_22" serif:id="f5_2" d="M267.211,187.84c0.352,0.316 0.352,1.104 0,2.366c-0.235,1.262 -0.587,1.893 -1.056,1.893c-0,-0 -0.352,-0.421 -1.056,-1.262c-0.705,-0.841 -1.468,-1.262 -2.289,-1.262c-1.643,0 -2.817,2.76 -3.521,8.28c-0.704,5.52 -1.35,8.227 -1.937,8.122c-0.704,0 -1.467,-1.209 -2.288,-3.627c-0.939,-3.049 -2.524,-5.415 -4.754,-7.097c-0.117,0.21 -0.293,0.42 -0.528,0.631c-0.352,0.105 -1.32,-0.237 -2.905,-1.026c-1.584,-0.788 -2.435,-1.498 -2.552,-2.129c-0.352,-2.838 0.234,-4.258 1.76,-4.258c2.817,-0.105 5.81,2.576 8.979,8.043c0.469,1.157 1.115,2.471 1.936,3.943c0.352,-2.628 0.822,-5.257 1.409,-7.885c0.939,-4.837 2.406,-7.202 4.401,-7.097c1.526,-0 2.993,0.788 4.401,2.365Z" style="fill:#fff;fill-rule:nonzero;"/><path id="f5_23" serif:id="f5_2" d="M243.702,150.569c0.352,0.316 0.352,1.104 -0,2.366c-0.235,1.261 -0.587,1.892 -1.057,1.892c0,0 -0.352,-0.42 -1.056,-1.261c-0.704,-0.842 -1.467,-1.262 -2.289,-1.262c-1.643,-0 -2.816,2.76 -3.521,8.28c-0.704,5.52 -1.349,8.227 -1.936,8.122c-0.704,-0 -1.467,-1.209 -2.289,-3.628c-0.939,-3.049 -2.523,-5.414 -4.753,-7.097c-0.118,0.211 -0.294,0.421 -0.528,0.631c-0.352,0.105 -1.321,-0.236 -2.905,-1.025c-1.585,-0.788 -2.435,-1.498 -2.553,-2.129c-0.352,-2.839 0.235,-4.258 1.761,-4.258c2.816,-0.105 5.809,2.576 8.978,8.043c0.47,1.157 1.115,2.471 1.937,3.943c0.352,-2.629 0.821,-5.257 1.408,-7.886c0.939,-4.836 2.406,-7.202 4.401,-7.097c1.526,0 2.993,0.789 4.402,2.366Z" style="fill:#fff;fill-rule:nonzero;"/><path id="f5_24" serif:id="f5_2" d="M305.629,365.596c0.352,0.315 0.352,1.104 0,2.365c-0.235,1.262 -0.587,1.893 -1.056,1.893c-0,-0 -0.352,-0.421 -1.056,-1.262c-0.705,-0.841 -1.467,-1.262 -2.289,-1.262c-1.643,0 -2.817,2.76 -3.521,8.28c-0.704,5.52 -1.35,8.227 -1.937,8.122c-0.704,0 -1.467,-1.209 -2.288,-3.627c-0.939,-3.049 -2.524,-5.415 -4.754,-7.097c-0.117,0.21 -0.293,0.421 -0.528,0.631c-0.352,0.105 -1.32,-0.237 -2.904,-1.025c-1.585,-0.789 -2.436,-1.499 -2.553,-2.129c-0.352,-2.839 0.235,-4.259 1.76,-4.259c2.817,-0.105 5.81,2.576 8.979,8.044c0.469,1.156 1.115,2.47 1.936,3.942c0.352,-2.628 0.822,-5.257 1.409,-7.885c0.939,-4.837 2.406,-7.202 4.401,-7.097c1.526,-0 2.993,0.788 4.401,2.366Z" style="fill:#f9c57b;fill-rule:nonzero;"/><path id="f5_25" serif:id="f5_2" d="M286.101,287.866c0.352,0.315 0.352,1.104 -0,2.365c-0.235,1.262 -0.587,1.893 -1.057,1.893c0,0 -0.352,-0.421 -1.056,-1.262c-0.704,-0.841 -1.467,-1.261 -2.289,-1.261c-1.643,-0 -2.816,2.76 -3.521,8.279c-0.704,5.52 -1.349,8.228 -1.936,8.123c-0.704,-0 -1.467,-1.21 -2.289,-3.628c-0.939,-3.049 -2.523,-5.415 -4.753,-7.097c-0.117,0.211 -0.294,0.421 -0.528,0.631c-0.352,0.105 -1.321,-0.236 -2.905,-1.025c-1.585,-0.789 -2.435,-1.498 -2.553,-2.129c-0.352,-2.839 0.235,-4.258 1.761,-4.258c2.816,-0.105 5.809,2.576 8.978,8.043c0.47,1.156 1.115,2.471 1.937,3.943c0.352,-2.629 0.821,-5.257 1.408,-7.886c0.939,-4.836 2.406,-7.202 4.401,-7.097c1.526,0 2.993,0.789 4.402,2.366Z" style="fill:#f9c57b;fill-rule:nonzero;"/><path id="f5_26" serif:id="f5_2" d="M226.499,368.463c0.353,0.315 0.353,1.104 0,2.365c-0.234,1.262 -0.586,1.893 -1.056,1.893c0,-0 -0.352,-0.421 -1.056,-1.262c-0.704,-0.841 -1.467,-1.262 -2.289,-1.262c-1.643,0 -2.817,2.76 -3.521,8.28c-0.704,5.52 -1.349,8.227 -1.936,8.122c-0.704,0 -1.467,-1.209 -2.289,-3.627c-0.939,-3.049 -2.523,-5.415 -4.753,-7.097c-0.118,0.21 -0.294,0.421 -0.528,0.631c-0.352,0.105 -1.321,-0.237 -2.905,-1.025c-1.585,-0.789 -2.436,-1.499 -2.553,-2.129c-0.352,-2.839 0.235,-4.259 1.761,-4.259c2.816,-0.105 5.809,2.576 8.978,8.044c0.47,1.156 1.115,2.47 1.937,3.942c0.352,-2.628 0.821,-5.257 1.408,-7.885c0.939,-4.837 2.406,-7.202 4.401,-7.097c1.526,-0 2.993,0.788 4.401,2.366Z" style="fill:#f9c57b;fill-rule:nonzero;"/><path id="f5_89" d="M294.269,169.542c-0,2.019 -0.393,3.532 -1.178,4.542c-1.458,1.57 -3.308,1.682 -5.551,0.336c-0.897,-0.448 -1.514,-1.121 -1.851,-2.018c-0.336,-0.673 -0.672,-0.729 -1.009,-0.169c-1.233,2.692 -2.859,4.038 -4.878,4.038c-0.897,-0 -1.738,-0.281 -2.523,-0.842c-1.01,-0.785 -1.739,-1.794 -2.187,-3.027c-0.785,-2.468 -1.066,-5.383 -0.841,-8.748c-0.897,0.112 -1.346,-0.112 -1.346,-0.673c0,-0.336 0.336,-1.121 1.009,-2.355c0.673,-1.233 1.066,-1.85 1.178,-1.85c1.121,0 1.626,1.402 1.514,4.205c-0.112,3.028 0.028,5.327 0.42,6.897c0.393,1.57 1.374,2.355 2.944,2.355c1.009,0 1.991,-0.448 2.944,-1.345c0.953,-0.898 1.374,-2.019 1.262,-3.365c-0.337,-3.252 -0.617,-5.13 -0.842,-5.635c-0.224,-0.505 -0.28,-1.037 -0.168,-1.598c0.112,-0.336 0.281,-0.953 0.505,-1.85c0.224,-0.673 0.561,-0.729 1.009,-0.169c0.337,0.561 0.673,1.402 1.009,2.524c0.337,1.458 0.505,3.252 0.505,5.383c0.112,1.57 0.505,2.803 1.178,3.7c1.233,1.346 2.523,1.739 3.869,1.178c0.448,-0.224 0.672,-0.561 0.672,-1.009c0,-0.785 -0.953,-3.309 -2.859,-7.57c-0.224,-0.449 -0.337,-1.009 -0.337,-1.682c0,-0.225 0.056,-0.393 0.169,-0.505c0.448,-1.906 0.841,-2.86 1.177,-2.86c0.337,0 0.561,0.561 0.673,1.682c-0,0.561 0.617,2.187 1.85,4.879c1.122,2.355 1.683,4.205 1.683,5.551Z" style="fill:#fff;fill-rule:nonzero;"/><path id="f5_30" d="M312.044,248.951c-0.686,1.098 -1.578,2.298 -2.675,3.602c-3.979,1.44 -9.982,3.841 -18.008,7.203c-4.596,2.195 -6.86,3.293 -6.791,3.293c-0.137,-0.138 0.103,-0.652 0.72,-1.544c0.618,-0.892 1.304,-1.612 2.058,-2.161c0.961,-0.823 3.636,-2.195 8.026,-4.116c5.283,-2.264 10.839,-4.356 16.67,-6.277Z" style="fill:#fff;fill-rule:nonzero;"/><path id="f5_301" serif:id="f5_30" d="M247.249,172.689c-0.686,1.097 -1.577,2.298 -2.675,3.601c-3.979,1.441 -9.981,3.842 -18.007,7.203c-4.596,2.195 -6.86,3.293 -6.792,3.293c-0.137,-0.137 0.103,-0.652 0.721,-1.544c0.617,-0.891 1.303,-1.612 2.058,-2.16c0.96,-0.824 3.635,-2.196 8.026,-4.116c5.282,-2.264 10.838,-4.357 16.669,-6.277Z" style="fill:#fff;fill-rule:nonzero;"/><path id="f5_302" serif:id="f5_30" d="M189.909,250.672c-0.686,1.097 -1.578,2.298 -2.675,3.601c-3.979,1.441 -9.982,3.842 -18.008,7.203c-4.596,2.195 -6.86,3.293 -6.791,3.293c-0.137,-0.137 0.103,-0.652 0.72,-1.544c0.618,-0.891 1.304,-1.612 2.058,-2.161c0.961,-0.823 3.636,-2.195 8.026,-4.116c5.283,-2.263 10.839,-4.356 16.67,-6.276Z" style="fill:#fff;fill-rule:nonzero;"/><path id="f5_303" serif:id="f5_30" d="M243.236,273.608c-0.686,1.097 -1.578,2.298 -2.676,3.601c-3.979,1.441 -9.981,3.842 -18.007,7.203c-4.596,2.195 -6.86,3.293 -6.791,3.293c-0.138,-0.137 0.102,-0.652 0.72,-1.544c0.617,-0.891 1.303,-1.612 2.058,-2.16c0.96,-0.824 3.636,-2.196 8.026,-4.116c5.282,-2.264 10.839,-4.356 16.67,-6.277Z" style="fill:#f9c57b;fill-rule:nonzero;"/><path id="path_218ab251-ec99-4aa3-8aff-ee80cf6d5e62" d="M274.275,283.455c-1.559,1.021 -3.958,1.701 -7.196,2.042c-0.24,-0 -0.389,-0.086 -0.45,-0.255c-0.06,-0.256 0,-0.469 0.18,-0.639c2.099,-1.276 4.828,-3.063 8.185,-5.36c-0.479,-0.596 -1.949,-1.021 -4.407,-1.277c-2.339,-0.255 -3.807,-0.297 -4.407,-0.127c-0.24,0.085 -0.42,0.085 -0.54,-0c-0.12,-0.086 -0.09,-0.298 0.09,-0.638c0.839,-1.873 1.859,-3.787 3.058,-5.744c2.339,-0.68 5.337,-0.255 8.995,1.276c0.899,0.341 1.349,1.064 1.349,2.17c-0,1.191 -0.614,2.786 -1.844,4.787c-1.229,2 -2.233,3.254 -3.013,3.765" style="fill:#f9c57b;fill-rule:nonzero;"/><path id="f5_3" d="M187.083,197.449c0.381,-0 0.444,0.86 0.19,2.581c-0.254,1.599 -0.571,2.705 -0.952,3.32c-0.762,1.106 -1.715,1.721 -2.858,1.844c-1.017,0.123 -1.779,-0.184 -2.287,-0.922c-1.524,-2.09 -2.159,-5.041 -1.905,-8.852c0.254,-2.213 1.206,-6.577 2.858,-13.093c0.254,-0.86 0.571,-1.536 0.953,-2.028c0.889,-1.353 1.333,-1.537 1.333,-0.553c0,0.368 -0.19,1.106 -0.571,2.212c-1.652,6.147 -2.477,10.758 -2.477,13.831c-0,2.213 0.317,3.688 0.952,4.426c0.381,0.492 0.826,0.738 1.334,0.738c1.27,-0 2.16,-0.861 2.668,-2.582c0.127,-0.615 0.381,-0.922 0.762,-0.922Z" style="fill:#fff;fill-rule:nonzero;"/><path id="f5_31" serif:id="f5_3" d="M215.753,196.302c0.381,-0 0.445,0.861 0.191,2.582c-0.254,1.598 -0.572,2.704 -0.953,3.319c-0.762,1.106 -1.715,1.721 -2.858,1.844c-1.016,0.123 -1.779,-0.184 -2.287,-0.922c-1.524,-2.09 -2.159,-5.04 -1.905,-8.852c0.254,-2.212 1.207,-6.577 2.858,-13.093c0.254,-0.86 0.572,-1.536 0.953,-2.028c0.889,-1.352 1.334,-1.537 1.334,-0.553c-0,0.369 -0.191,1.106 -0.572,2.213c-1.651,6.147 -2.477,10.757 -2.477,13.83c-0,2.213 0.317,3.688 0.953,4.426c0.381,0.492 0.825,0.738 1.333,0.738c1.271,-0 2.16,-0.861 2.668,-2.582c0.127,-0.615 0.381,-0.922 0.762,-0.922Z" style="fill:#fff;fill-rule:nonzero;"/><path id="f5_32" serif:id="f5_3" d="M264.492,170.499c0.382,-0 0.445,0.86 0.191,2.581c-0.254,1.599 -0.572,2.705 -0.953,3.32c-0.762,1.106 -1.715,1.721 -2.858,1.844c-1.016,0.123 -1.778,-0.184 -2.286,-0.922c-1.525,-2.09 -2.16,-5.041 -1.906,-8.852c0.254,-2.213 1.207,-6.577 2.858,-13.093c0.254,-0.86 0.572,-1.536 0.953,-2.028c0.889,-1.353 1.334,-1.537 1.334,-0.553c-0,0.368 -0.191,1.106 -0.572,2.212c-1.651,6.147 -2.477,10.758 -2.477,13.831c0,2.213 0.318,3.688 0.953,4.426c0.381,0.492 0.826,0.738 1.334,0.738c1.27,-0 2.159,-0.861 2.667,-2.582c0.127,-0.615 0.381,-0.922 0.762,-0.922Z" style="fill:#fff;fill-rule:nonzero;"/><path id="f5_33" serif:id="f5_3" d="M278.254,208.917c0.381,-0 0.445,0.86 0.191,2.582c-0.254,1.598 -0.572,2.704 -0.953,3.319c-0.762,1.106 -1.715,1.721 -2.858,1.844c-1.016,0.123 -1.779,-0.184 -2.287,-0.922c-1.524,-2.09 -2.159,-5.041 -1.905,-8.852c0.254,-2.213 1.207,-6.577 2.858,-13.093c0.254,-0.86 0.572,-1.536 0.953,-2.028c0.889,-1.352 1.334,-1.537 1.334,-0.553c-0,0.368 -0.191,1.106 -0.572,2.213c-1.651,6.146 -2.477,10.757 -2.477,13.83c-0,2.213 0.317,3.688 0.953,4.426c0.381,0.492 0.825,0.738 1.333,0.738c1.271,-0 2.16,-0.861 2.668,-2.582c0.127,-0.615 0.381,-0.922 0.762,-0.922Z" style="fill:#fff;fill-rule:nonzero;"/><path id="f5_34" serif:id="f5_3" d="M206.579,277.725c0.381,0 0.444,0.861 0.19,2.582c-0.254,1.598 -0.571,2.705 -0.953,3.319c-0.762,1.107 -1.714,1.722 -2.858,1.844c-1.016,0.123 -1.778,-0.184 -2.286,-0.922c-1.525,-2.09 -2.16,-5.04 -1.906,-8.851c0.254,-2.213 1.207,-6.577 2.859,-13.093c0.254,-0.861 0.571,-1.537 0.952,-2.029c0.889,-1.352 1.334,-1.536 1.334,-0.553c0,0.369 -0.19,1.107 -0.572,2.213c-1.651,6.147 -2.477,10.757 -2.477,13.831c0,2.213 0.318,3.688 0.953,4.425c0.381,0.492 0.826,0.738 1.334,0.738c1.27,0 2.159,-0.861 2.667,-2.582c0.127,-0.614 0.382,-0.922 0.763,-0.922Z" style="fill:#f9c57b;fill-rule:nonzero;"/><path id="f5_35" serif:id="f5_3" d="M219.194,321.304c0.381,0 0.444,0.861 0.19,2.582c-0.254,1.598 -0.572,2.704 -0.953,3.319c-0.762,1.107 -1.715,1.721 -2.858,1.844c-1.016,0.123 -1.778,-0.184 -2.286,-0.922c-1.525,-2.09 -2.16,-5.04 -1.906,-8.851c0.254,-2.213 1.207,-6.578 2.858,-13.094c0.254,-0.86 0.572,-1.536 0.953,-2.028c0.889,-1.352 1.334,-1.537 1.334,-0.553c-0,0.369 -0.191,1.106 -0.572,2.213c-1.651,6.147 -2.477,10.757 -2.477,13.83c0,2.213 0.318,3.688 0.953,4.426c0.381,0.492 0.826,0.738 1.334,0.738c1.27,-0 2.159,-0.861 2.667,-2.582c0.127,-0.615 0.381,-0.922 0.763,-0.922Z" style="fill:#f9c57b;fill-rule:nonzero;"/><path id="f5_36" serif:id="f5_3" d="M262.772,378.673c0.381,0 0.445,0.861 0.191,2.582c-0.254,1.598 -0.572,2.704 -0.953,3.319c-0.762,1.107 -1.715,1.721 -2.858,1.844c-1.016,0.123 -1.778,-0.184 -2.287,-0.922c-1.524,-2.09 -2.159,-5.04 -1.905,-8.851c0.254,-2.213 1.207,-6.578 2.858,-13.093c0.254,-0.861 0.572,-1.537 0.953,-2.029c0.889,-1.352 1.334,-1.537 1.334,-0.553c-0,0.369 -0.191,1.106 -0.572,2.213c-1.651,6.147 -2.477,10.757 -2.477,13.83c-0,2.213 0.318,3.689 0.953,4.426c0.381,0.492 0.825,0.738 1.333,0.738c1.271,-0 2.16,-0.861 2.668,-2.582c0.127,-0.615 0.381,-0.922 0.762,-0.922Z" style="fill:#f9c57b;fill-rule:nonzero;"/><path id="f5_37" serif:id="f5_3" d="M297.75,300.117c0.381,-0 0.444,0.86 0.19,2.581c-0.254,1.599 -0.571,2.705 -0.952,3.32c-0.762,1.106 -1.715,1.721 -2.858,1.844c-1.017,0.123 -1.779,-0.185 -2.287,-0.922c-1.524,-2.09 -2.159,-5.041 -1.905,-8.852c0.254,-2.213 1.206,-6.577 2.858,-13.093c0.254,-0.86 0.571,-1.537 0.952,-2.028c0.89,-1.353 1.334,-1.537 1.334,-0.553c0,0.368 -0.19,1.106 -0.571,2.212c-1.652,6.147 -2.477,10.758 -2.477,13.831c-0,2.213 0.317,3.688 0.952,4.426c0.381,0.492 0.826,0.737 1.334,0.737c1.27,0 2.16,-0.86 2.668,-2.581c0.127,-0.615 0.381,-0.922 0.762,-0.922Z" style="fill:#f9c57b;fill-rule:nonzero;"/><path id="f5_38" serif:id="f5_3" d="M258.758,278.901c0.381,-0 0.445,0.86 0.191,2.582c-0.254,1.598 -0.572,2.704 -0.953,3.319c-0.762,1.106 -1.715,1.721 -2.858,1.844c-1.016,0.123 -1.778,-0.184 -2.286,-0.922c-1.525,-2.09 -2.16,-5.041 -1.906,-8.852c0.254,-2.213 1.207,-6.577 2.858,-13.093c0.254,-0.86 0.572,-1.536 0.953,-2.028c0.889,-1.353 1.334,-1.537 1.334,-0.553c-0,0.368 -0.191,1.106 -0.572,2.212c-1.651,6.147 -2.477,10.758 -2.477,13.831c0,2.213 0.318,3.688 0.953,4.426c0.381,0.492 0.826,0.738 1.334,0.738c1.27,-0 2.159,-0.861 2.667,-2.582c0.127,-0.615 0.381,-0.922 0.762,-0.922Z" style="fill:#f9c57b;fill-rule:nonzero;"/></g></svg>